<?xml version="1.0" encoding="UTF-8"?>
<svg id="Layer_2" data-name="Layer 2" xmlns="http://www.w3.org/2000/svg" viewBox="0 0 357.3 289.55">
  <defs>
    <style>
      .cls-1 {
        fill: #039;
      }
    </style>
  </defs>
  <g id="Layer_1-2" data-name="Layer 1">
    <path class="cls-1" d="M151.88,253.89c-13.34,12.41-4.13,30.17-36.52,34.94C57.13,297.43,5.75,226.8.92,174.37-1.66,146.33-1.3,61.53,36.14,54.61c24.79-4.58,42.83,9.67,70.64.36,30.83-10.32,37.9-43.56,70.91-52.66,27.36-7.55,91.67,5.23,120.85,12.64,23.74,6.04,56.52,16.24,58.63,45.63,1.56,21.72-11.75,17.68-25.48,27.83-41.77,30.88-13.12,73.55-32.26,115.53-17.31,37.96-56.76,50.98-96.3,49.29-15-.64-38.93-10.8-51.25.66Z"/>
  </g>
</svg>