<?xml version="1.0" encoding="UTF-8"?>
<svg id="Layer_2" data-name="Layer 2" xmlns="http://www.w3.org/2000/svg" viewBox="0 0 379.55 387.94">
  <defs>
    <style>
      .cls-1 {
        fill: #039;
      }
    </style>
  </defs>
  <g id="Layer_1-2" data-name="Layer 1">
    <path class="cls-1" d="M154.03,1.11c9.74-1.51,25.74-2.79,32.67,5.42,4.77,5.66,14.24,52.16,21.3,66.92,6.5,13.58,23.18,38.46,35.27,46.87,36.77,25.55,58.95-10.26,97.1,3.32,70.54,25.11,29.57,133.06,2.52,178.79-17.03,28.8-61.23,73.14-93.68,82.76-35,10.37-75.21-10.3-103.26-30.72-12.09-8.8-41.82-41.13-51.14-43.23-23.66-5.34-20.72,22.53-55.73,13.17C-20.95,308.35,2.42,195.21,16.5,152.57,36.28,92.67,85.66,11.71,154.03,1.11Z"/>
  </g>
</svg>