<?xml version="1.0" encoding="UTF-8"?>
<svg id="Layer_2" data-name="Layer 2" xmlns="http://www.w3.org/2000/svg" viewBox="0 0 322.82 261.81">
  <defs>
    <style>
      .cls-1 {
        fill: #039;
      }
    </style>
  </defs>
  <g id="Layer_1-2" data-name="Layer 1">
    <path class="cls-1" d="M222.91.91c41.47-6.06,90.07,18.69,98.82,61.89,7.42,36.62-24.72,35.92-48.29,51.35-8.92,5.84-22.45,16.56-25.2,27.17-3.56,13.77,14.07,46.54,14.68,66.68,1.56,51.26-56.08,64.68-95.28,45.44-28.35-13.92-35.64-32.65-55.18-52.01-28.9-28.63-60.22-2.87-87.38-30.28C-36.73,108.74,24.6-4.29,112.41,5.44c17.3,1.92,33.28,16.22,52.18,15.77,20.78-.5,38.68-17.44,58.32-20.31Z"/>
  </g>
</svg>